<?xml version="1.0" encoding="UTF-8"?>
<svg width="100%" height="100%" viewBox="0 0 240 100" version="1.1" xmlns="http://www.w3.org/2000/svg">
    <path d="M37.5 25h165v50h-165z" fill="#000000"/>
    <path d="M118.975 49.5c0 4.125-3.345 7.47-7.47 7.47s-7.47-3.345-7.47-7.47 3.345-7.47 7.47-7.47 7.47 3.345 7.47 7.47zm17.955 0c0 4.125-3.345 7.47-7.47 7.47s-7.47-3.345-7.47-7.47 3.345-7.47 7.47-7.47 7.47 3.345 7.47 7.47z" fill="#ffffff"/>
    <path d="M82.5 42.03v14.94h-7.47V42.03H67.5v-7.47h22.41v7.47h-7.41zm75 0v14.94h-7.47V42.03H142.5v-7.47h22.41v7.47h-7.41z" fill="#ffffff"/>
</svg> 